<mxfile host="app.diagrams.net" modified="2020-05-19T20:48:07.469Z" agent="5.0 (Windows NT 10.0; Win64; x64) AppleWebKit/537.36 (KHTML, like Gecko) Chrome/81.0.4044.138 Safari/537.36" etag="_m7lGZI9AuZeIKZmBHy1" version="13.1.1" type="github">
  <diagram id="khcbJopSJ2TuTnvJd8K6" name="PÃ¡gina-1">
    <mxGraphModel dx="1662" dy="762" grid="1" gridSize="10" guides="1" tooltips="1" connect="1" arrows="1" fold="1" page="1" pageScale="1" pageWidth="827" pageHeight="1169" math="0" shadow="0">
      <root>
        <mxCell id="0" />
        <mxCell id="1" parent="0" />
      </root>
    </mxGraphModel>
  </diagram>
</mxfile>
